<svg width="482" height="325" viewBox="0 0 482 325" fill="none" xmlns="http://www.w3.org/2000/svg">
<path d="M485.98 0.320557C485.98 0.320557 381.184 123.305 291.085 177.377C190.097 237.984 0.0957636 274.155 0.0957636 274.155" stroke="#525252"/>
<path d="M50.2936 233.545C50.1884 234.272 50.0888 234.98 49.9951 235.67C49.9013 236.361 49.8131 237.034 49.7315 237.69C49.6496 238.346 49.5742 238.985 49.5052 239.608C49.4365 240.231 49.3742 240.837 49.319 241.429C49.2637 242.021 49.2155 242.597 49.1749 243.159C49.1342 243.721 49.1008 244.268 49.0753 244.802C49.0499 245.336 49.0322 245.856 49.0228 246.363C49.0133 246.87 49.0123 247.364 49.0198 247.846C49.0273 248.328 49.0435 248.798 49.0686 249.256C49.0937 249.715 49.128 250.162 49.1715 250.599C49.2153 251.036 49.2682 251.462 49.331 251.878C49.3939 252.295 49.4666 252.701 49.5497 253.099C49.6325 253.497 49.7258 253.886 49.8296 254.266C49.9335 254.647 50.048 255.019 50.1734 255.384C50.299 255.749 50.4355 256.107 50.5833 256.458C50.7314 256.809 50.8908 257.154 51.062 257.492C51.2332 257.831 51.4163 258.164 51.6116 258.492C51.8069 258.82 52.0143 259.143 52.2346 259.461C52.4547 259.78 52.6875 260.094 52.9333 260.405C53.1791 260.716 53.438 261.024 53.7102 261.329C53.9825 261.634 54.2682 261.936 54.5677 262.236C54.8673 262.537 55.1807 262.836 55.5083 263.133C55.8358 263.431 56.1777 263.727 56.5342 264.023C56.8906 264.319 57.2617 264.615 57.6478 264.912C58.0339 265.208 58.4351 265.505 58.8516 265.804C59.2682 266.102 59.7001 266.402 60.1481 266.703C60.5958 267.005 61.0595 267.309 61.5395 267.616C62.0195 267.923 62.5155 268.232 63.0282 268.546C63.541 268.859 64.0704 269.176 64.6167 269.497C65.1631 269.819 65.7266 270.145 66.3073 270.476C66.8883 270.807 67.4866 271.144 68.1025 271.486C68.7186 271.829 69.3525 272.177 70.0047 272.533C69.2667 272.429 68.5475 272.331 67.8461 272.239C67.1448 272.147 66.4614 272.06 65.7953 271.979C65.1292 271.899 64.4799 271.825 63.8472 271.757C63.2145 271.689 62.598 271.628 61.997 271.573C61.396 271.519 60.8107 271.471 60.2399 271.431C59.6691 271.391 59.1133 271.358 58.5711 271.333C58.0291 271.308 57.5009 271.291 56.9858 271.282C56.4707 271.272 55.9689 271.271 55.4793 271.279C54.9897 271.286 54.5124 271.302 54.0466 271.327C53.5809 271.351 53.1265 271.385 52.683 271.428C52.2395 271.471 51.8065 271.523 51.3836 271.585C50.9606 271.647 50.5475 271.719 50.1435 271.8C49.7395 271.882 49.3447 271.974 48.9582 272.076C48.5716 272.178 48.1934 272.291 47.8226 272.414C47.4518 272.538 47.0886 272.673 46.732 272.818C46.3754 272.964 46.0255 273.121 45.6815 273.289C45.3375 273.458 44.9994 273.638 44.6662 273.83C44.3331 274.023 44.0053 274.227 43.6817 274.444C43.3581 274.661 43.0387 274.89 42.7228 275.132C42.4069 275.374 42.0944 275.629 41.7848 275.897C41.4751 276.165 41.168 276.446 40.8628 276.741C40.5576 277.036 40.2543 277.344 39.9521 277.667C39.6498 277.989 39.3487 278.326 39.0479 278.677C38.747 279.028 38.4464 279.393 38.1452 279.773C37.8441 280.153 37.5425 280.548 37.2394 280.958C36.9364 281.369 36.632 281.794 36.3256 282.235C36.0191 282.676 35.7106 283.132 35.3989 283.605C35.0873 284.077 34.7728 284.566 34.4546 285.07C34.1363 285.575 33.8143 286.097 33.4878 286.634C33.1611 287.172 32.8301 287.727 32.4938 288.299C32.1574 288.871 31.8156 289.46 31.4677 290.066C31.1197 290.673 30.7657 291.297 30.4046 291.939C30.5098 291.212 30.6095 290.504 30.7032 289.814C30.797 289.123 30.885 288.451 30.9668 287.795C31.0485 287.139 31.1241 286.5 31.193 285.877C31.2618 285.254 31.3241 284.647 31.3793 284.055C31.4345 283.463 31.4827 282.887 31.5234 282.325C31.5641 281.763 31.5975 281.216 31.6229 280.682C31.6484 280.149 31.666 279.629 31.6755 279.122C31.685 278.614 31.686 278.12 31.6785 277.638C31.671 277.156 31.6549 276.686 31.6297 276.228C31.6046 275.769 31.5703 275.322 31.5268 274.885C31.4831 274.449 31.4301 274.022 31.3673 273.606C31.3044 273.19 31.2317 272.783 31.1487 272.385C31.0658 271.987 30.9725 271.599 30.8686 271.218C30.7648 270.837 30.6503 270.465 30.5249 270.1C30.3993 269.735 30.2628 269.377 30.1149 269.026C29.9669 268.675 29.8075 268.331 29.6363 267.992C29.4651 267.653 29.282 267.32 29.0867 266.993C28.8914 266.665 28.6839 266.342 28.4637 266.023C28.2435 265.704 28.0107 265.39 27.765 265.079C27.5192 264.768 27.2602 264.461 26.9881 264.156C26.7158 263.851 26.43 263.548 26.1305 263.248C25.831 262.947 25.5177 262.649 25.19 262.351C24.8625 262.054 24.5205 261.757 24.1641 261.461C23.8076 261.165 23.4365 260.869 23.0505 260.572C22.6644 260.276 22.2632 259.979 21.8467 259.681C21.4302 259.382 20.9982 259.082 20.5504 258.781C20.1026 258.479 19.6389 258.175 19.1589 257.869C18.679 257.562 18.183 257.252 17.6702 256.939C17.1574 256.626 16.6282 256.309 16.0817 255.987C15.5354 255.665 14.9719 255.339 14.3911 255.008C13.8104 254.677 13.212 254.341 12.5959 253.998C11.9798 253.656 11.3459 253.307 10.6939 252.952C11.4319 253.055 12.1511 253.153 12.8523 253.245C13.5536 253.338 14.237 253.424 14.9031 253.505C15.5693 253.586 16.2186 253.66 16.8512 253.728C17.4841 253.796 18.1004 253.857 18.7015 253.911C19.3024 253.966 19.8877 254.013 20.4585 254.053C21.0294 254.093 21.5851 254.126 22.1273 254.151C22.6693 254.176 23.1975 254.193 23.7125 254.203C24.2275 254.212 24.7294 254.213 25.219 254.206C25.7086 254.198 26.1859 254.182 26.6517 254.158C27.1174 254.133 27.5718 254.099 28.0153 254.056C28.4588 254.013 28.8917 253.961 29.3147 253.899C29.7376 253.837 30.1508 253.766 30.5548 253.684C30.9587 253.602 31.3535 253.511 31.7401 253.408C32.1266 253.306 32.5049 253.193 32.8757 253.07C33.2465 252.946 33.6097 252.812 33.9663 252.666C34.3229 252.521 34.6728 252.364 35.0168 252.195C35.3608 252.026 35.6989 251.846 36.032 251.654C36.3651 251.462 36.693 251.257 37.0166 251.041C37.3403 250.824 37.6595 250.595 37.9755 250.353C38.2914 250.111 38.6039 249.856 38.9135 249.588C39.2232 249.32 39.5303 249.038 39.8356 248.743C40.1407 248.448 40.444 248.14 40.7462 247.817C41.0485 247.495 41.3496 247.158 41.6504 246.807C41.9513 246.456 42.252 246.091 42.5531 245.711C42.8542 245.331 43.1558 244.936 43.4589 244.526C43.7619 244.116 44.0664 243.69 44.3727 243.249C44.6792 242.809 44.9877 242.352 45.2993 241.88C45.6109 241.407 45.9254 240.919 46.2437 240.414C46.5619 239.909 46.8839 239.388 47.2105 238.85C47.5371 238.312 47.8682 237.757 48.2045 237.185C48.5408 236.614 48.8826 236.025 49.2306 235.418C49.5786 234.812 49.9327 234.187 50.2936 233.545Z" fill="#E23C88"/>
</svg>
