<svg width="447" height="325" viewBox="0 0 447 325" fill="none" xmlns="http://www.w3.org/2000/svg">
<path d="M-31.959 0.320068C-31.959 0.320068 71.2163 123.304 159.922 177.376C259.348 237.984 446.41 274.155 446.41 274.155" stroke="#525252"/>
<path d="M396.988 233.545C397.091 234.272 397.19 234.98 397.282 235.67C397.374 236.36 397.461 237.033 397.541 237.689C397.622 238.345 397.696 238.984 397.764 239.607C397.832 240.23 397.893 240.837 397.947 241.429C398.002 242.02 398.049 242.597 398.089 243.159C398.129 243.72 398.162 244.268 398.187 244.802C398.212 245.335 398.23 245.855 398.239 246.362C398.248 246.869 398.249 247.363 398.242 247.845C398.235 248.327 398.219 248.797 398.194 249.256C398.169 249.714 398.136 250.162 398.093 250.598C398.05 251.035 397.997 251.461 397.936 251.878C397.874 252.294 397.802 252.701 397.72 253.099C397.639 253.496 397.547 253.885 397.445 254.266C397.342 254.646 397.23 255.019 397.106 255.384C396.983 255.749 396.848 256.106 396.703 256.458C396.557 256.809 396.4 257.153 396.231 257.492C396.063 257.83 395.883 258.163 395.69 258.491C395.498 258.819 395.294 259.142 395.077 259.461C394.86 259.779 394.631 260.094 394.389 260.405C394.147 260.716 393.892 261.023 393.624 261.328C393.356 261.633 393.075 261.935 392.78 262.236C392.485 262.536 392.176 262.835 391.854 263.133C391.531 263.43 391.195 263.727 390.844 264.023C390.493 264.319 390.128 264.615 389.747 264.911C389.367 265.208 388.972 265.505 388.562 265.803C388.152 266.102 387.727 266.401 387.286 266.703C386.845 267.005 386.389 267.308 385.916 267.615C385.443 267.922 384.955 268.232 384.45 268.545C383.945 268.858 383.424 269.175 382.886 269.497C382.348 269.818 381.794 270.144 381.222 270.476C380.65 270.807 380.061 271.143 379.455 271.486C378.848 271.828 378.224 272.177 377.582 272.532C378.308 272.429 379.016 272.331 379.707 272.238C380.397 272.146 381.07 272.059 381.726 271.979C382.382 271.898 383.021 271.824 383.644 271.756C384.267 271.688 384.874 271.627 385.466 271.573C386.057 271.518 386.633 271.471 387.195 271.431C387.757 271.391 388.305 271.358 388.838 271.333C389.372 271.308 389.892 271.29 390.399 271.281C390.906 271.272 391.4 271.271 391.882 271.278C392.364 271.286 392.834 271.301 393.293 271.326C393.752 271.351 394.199 271.385 394.635 271.428C395.072 271.471 395.498 271.523 395.915 271.585C396.331 271.646 396.738 271.718 397.136 271.8C397.533 271.881 397.922 271.973 398.303 272.076C398.683 272.178 399.056 272.291 399.421 272.414C399.786 272.537 400.143 272.672 400.494 272.818C400.846 272.963 401.19 273.12 401.529 273.289C401.867 273.457 402.2 273.638 402.528 273.83C402.856 274.022 403.179 274.226 403.498 274.443C403.816 274.66 404.131 274.889 404.442 275.131C404.753 275.373 405.06 275.628 405.365 275.896C405.67 276.164 405.972 276.445 406.273 276.74C406.573 277.035 406.872 277.344 407.169 277.666C407.467 277.989 407.763 278.325 408.06 278.676C408.356 279.027 408.652 279.393 408.948 279.773C409.245 280.153 409.542 280.548 409.84 280.958C410.139 281.368 410.438 281.793 410.74 282.234C411.042 282.675 411.345 283.132 411.652 283.604C411.959 284.077 412.269 284.565 412.582 285.07C412.895 285.575 413.212 286.096 413.534 286.634C413.855 287.172 414.181 287.727 414.512 288.298C414.844 288.87 415.18 289.459 415.523 290.066C415.865 290.672 416.214 291.296 416.569 291.938C416.466 291.212 416.368 290.504 416.275 289.813C416.183 289.123 416.096 288.45 416.016 287.794C415.935 287.138 415.861 286.499 415.793 285.876C415.725 285.253 415.664 284.646 415.61 284.055C415.555 283.463 415.508 282.887 415.468 282.325C415.428 281.763 415.395 281.216 415.37 280.682C415.345 280.148 415.327 279.628 415.318 279.121C415.309 278.614 415.308 278.12 415.315 277.638C415.322 277.156 415.338 276.686 415.363 276.227C415.388 275.769 415.422 275.321 415.464 274.885C415.508 274.448 415.56 274.022 415.621 273.605C415.683 273.189 415.755 272.782 415.837 272.385C415.918 271.987 416.01 271.598 416.112 271.218C416.215 270.837 416.327 270.465 416.451 270.1C416.575 269.734 416.709 269.377 416.854 269.026C417 268.675 417.157 268.33 417.326 267.992C417.494 267.653 417.675 267.32 417.867 266.992C418.059 266.664 418.263 266.341 418.48 266.023C418.697 265.704 418.926 265.39 419.168 265.079C419.41 264.768 419.665 264.46 419.933 264.155C420.201 263.85 420.482 263.548 420.777 263.247C421.072 262.947 421.381 262.648 421.703 262.351C422.026 262.053 422.362 261.757 422.713 261.461C423.064 261.164 423.43 260.868 423.81 260.572C424.19 260.275 424.585 259.978 424.995 259.68C425.405 259.382 425.83 259.082 426.271 258.78C426.712 258.479 427.168 258.175 427.641 257.868C428.114 257.561 428.602 257.252 429.107 256.938C429.612 256.625 430.133 256.308 430.671 255.986C431.208 255.665 431.763 255.339 432.335 255.008C432.907 254.677 433.496 254.34 434.102 253.998C434.709 253.655 435.333 253.306 435.975 252.951C435.249 253.055 434.54 253.153 433.85 253.245C433.16 253.337 432.487 253.424 431.831 253.505C431.175 253.585 430.536 253.659 429.913 253.727C429.29 253.795 428.683 253.856 428.091 253.911C427.5 253.965 426.923 254.012 426.361 254.053C425.8 254.093 425.252 254.125 424.719 254.151C424.185 254.176 423.665 254.193 423.158 254.202C422.651 254.212 422.157 254.213 421.675 254.205C421.193 254.198 420.723 254.182 420.264 254.157C419.806 254.132 419.358 254.099 418.922 254.056C418.485 254.013 418.059 253.961 417.642 253.899C417.226 253.837 416.819 253.765 416.421 253.684C416.024 253.602 415.635 253.51 415.254 253.408C414.874 253.306 414.501 253.193 414.136 253.069C413.771 252.946 413.414 252.811 413.063 252.666C412.712 252.52 412.367 252.363 412.028 252.195C411.69 252.026 411.357 251.846 411.029 251.653C410.701 251.461 410.378 251.257 410.06 251.04C409.741 250.823 409.427 250.594 409.116 250.352C408.804 250.11 408.497 249.855 408.192 249.587C407.887 249.319 407.585 249.038 407.284 248.743C406.984 248.448 406.685 248.139 406.388 247.817C406.09 247.494 405.794 247.158 405.497 246.807C405.201 246.456 404.905 246.091 404.609 245.71C404.312 245.33 404.015 244.935 403.717 244.525C403.419 244.115 403.119 243.69 402.817 243.249C402.516 242.808 402.212 242.352 401.905 241.879C401.598 241.407 401.289 240.918 400.975 240.413C400.662 239.909 400.345 239.387 400.023 238.849C399.702 238.312 399.376 237.757 399.045 237.185C398.714 236.613 398.377 236.024 398.034 235.418C397.692 234.811 397.343 234.187 396.988 233.545Z" fill="#4DA2D8"/>
</svg>
